<?xml version="1.0" encoding="utf-8"?>
<!DOCTYPE svg PUBLIC "-//W3C//DTD SVG 1.1//EN" "http://www.w3.org/Graphics/SVG/1.1/DTD/svg11.dtd">
<svg version="1.1" xmlns="http://www.w3.org/2000/svg" xmlns:xlink="http://www.w3.org/1999/xlink" 
	x="0px" y="0px" width="600px" height="600px" viewBox="0 0 600 600" enable-background="new 0 0 600 600" xml:space="preserve">
	<g id="twitter">
		<path fill="#FFFFFF" d="M570,300c0,149.117-120.883,270-270,270S30,449.117,30,300S150.883,30,300,30S570,150.883,570,300z
			 M510,185.946c-14.718,6.527-30.534,10.938-47.135,12.922c16.943-10.156,29.958-26.238,36.084-45.402
			c-15.856,9.404-33.42,16.234-52.112,19.916c-14.97-15.951-36.297-25.917-59.901-25.917c-45.321,0-82.065,36.744-82.065,82.062
			c0,6.434,0.726,12.694,2.123,18.701c-68.203-3.421-128.67-36.092-169.146-85.742c-7.063,12.121-11.11,26.218-11.11,41.258
			c0,28.47,14.488,53.589,36.506,68.306c-13.451-0.426-26.104-4.117-37.169-10.265c-0.006,0.343-0.009,0.686-0.009,1.031
			c0,39.762,28.288,72.93,65.832,80.467c-6.888,1.875-14.137,2.878-21.621,2.878c-5.29,0-10.431-0.515-15.44-1.472
			c10.442,32.604,40.75,56.331,76.659,56.992c-28.084,22.011-63.471,35.13-101.917,35.13c-6.624,0-13.156-0.388-19.577-1.146
			c36.318,23.286,79.454,36.87,125.799,36.87c150.946,0,233.489-125.047,233.489-233.491c0-3.558-0.081-7.098-0.238-10.616
			C485.085,216.856,498.998,202.403,510,185.946z"/>
	</g>
</svg>