<svg version="1.1" xmlns="http://www.w3.org/2000/svg" xmlns:xlink="http://www.w3.org/1999/xlink"
	x="0px" y="0px" width="600px" height="600px" viewBox="0 0 600 600" enable-background="new 0 0 600 600" xml:space="preserve">
	<g id="editor">
		<circle fill="none" stroke="#FFFFFF" stroke-width="30" stroke-miterlimit="10" cx="300" cy="300" r="270"/>
		<g>
			<path fill="#FFFFFF" stroke="#FFFFFF" stroke-width="18" stroke-miterlimit="2" d="M316.62,456.76
				c-32.76,0-51.12-18.72-51.12-51.479v-64.44c0-20.16-18-32.04-37.08-33.84v-16.92c19.08-2.16,37.08-13.32,37.08-33.48v-64.44
				c0-32.76,18.36-51.48,51.12-51.48h9.36v15.12h-9.36c-24.84,0-34.56,12.24-34.56,36.36v64.44c0,20.521-14.76,36.72-33.84,41.76
				c19.08,5.04,33.84,21.961,33.84,42.48v64.44c0,24.12,9.72,36.359,34.56,36.359h9.36v15.12H316.62z"/>
		</g>
	</g>
</svg>