<svg version="1.1" xmlns="http://www.w3.org/2000/svg" xmlns:xlink="http://www.w3.org/1999/xlink"
	x="0px" y="0px" width="600px" height="600px" viewBox="0 0 600 600" enable-background="new 0 0 600 600" xml:space="preserve">
	<g id="editor-hover">
		<path display="inline" fill="#FFFFFF" d="M300,30C150.883,30,30,150.883,30,300s120.883,270,270,270s270-120.883,270-270
			S449.117,30,300,30z M329.98,159.8h-13.36c-21.706,0-30.56,9.375-30.56,32.36v64.44c0,17.953-10.341,33.713-26.602,41.797
			c16.071,8.218,26.602,24.46,26.602,42.443v64.44c0,22.984,8.854,32.359,30.56,32.359h13.36v23.12h-13.36
			c-35.03,0-55.12-20.222-55.12-55.479v-64.44c0-12.86-10.469-27.689-33.456-29.857l-3.625-0.342v-24.133l3.55-0.402
			c15.468-1.751,33.53-10.529,33.53-29.506v-64.44c0-35.258,20.09-55.48,55.12-55.48h13.36V159.8z"/>
		<circle display="inline" fill="none" stroke="#FFFFFF" stroke-width="30" stroke-miterlimit="10" cx="300" cy="300" r="270"/>
	</g>
</svg>