<svg version="1.1" xmlns="http://www.w3.org/2000/svg" xmlns:xlink="http://www.w3.org/1999/xlink"
	x="0px" y="0px" width="600px" height="600px" viewBox="0 0 600 600" enable-background="new 0 0 600 600" xml:space="preserve">
	<g id="editor-close-hover">
		<path d="M300,30C150.883,30,30,150.883,30,300s120.883,270,270,270s270-120.883,270-270S449.117,30,300,30z M380.58,315.397
			l-7.987,0.904c-13.421,1.52-29.093,8.858-29.093,24.538v64.439c0,37.871-22.475,60.48-60.12,60.48h-18.36v-33.12h18.36
			c18.871,0,25.56-7.16,25.56-27.36V340.84c0-17.013,8.34-32.233,21.969-41.864c-13.503-9.828-21.969-25.395-21.969-42.376v-64.44
			c0-20.2-6.688-27.359-25.56-27.359h-18.36v-33.12h18.36c37.646,0,60.12,22.609,60.12,60.479v64.44
			c0,11.026,8.944,22.995,28.926,24.879l8.154,0.77V315.397z"/>
		<circle fill="none" stroke="#000000" stroke-width="30" stroke-miterlimit="10" cx="300" cy="300" r="270"/>
	</g>
</svg>