<?xml version="1.0" encoding="utf-8"?>
<!DOCTYPE svg PUBLIC "-//W3C//DTD SVG 1.1//EN" "http://www.w3.org/Graphics/SVG/1.1/DTD/svg11.dtd">
<svg version="1.1" xmlns="http://www.w3.org/2000/svg" xmlns:xlink="http://www.w3.org/1999/xlink" 
	x="0px" y="0px" width="600px" height="600px" viewBox="0 0 600 600" enable-background="new 0 0 600 600" xml:space="preserve">
	<g id="github">
		<path fill-rule="evenodd" clip-rule="evenodd" fill="#FFFFFF" stroke="none" stroke-width="20" stroke-miterlimit="10" d="
			M299.983,30.65C150.885,30.65,30,151.567,30,300.683c0,119.299,77.342,220.5,184.662,256.207c13.5,2.461,18.42-5.859,18.42-13.014
			c0-6.41-0.227-23.406-0.355-45.939c-75.107,16.316-90.971-36.193-90.971-36.193c-12.271-31.176-29.979-39.496-29.979-39.496
			c-24.508-16.738,1.861-16.414,1.861-16.414c27.097,1.91,41.357,27.842,41.357,27.842c24.086,41.244,63.194,29.33,78.572,22.436
			c2.461-17.449,9.438-29.363,17.158-36.098c-59.957-6.83-122.989-29.979-122.989-133.445c0-29.493,10.521-53.58,27.776-72.454
			c-2.768-6.831-12.043-34.284,2.655-71.45c0,0,22.661-7.284,74.25,27.68c21.545-5.989,44.628-9,67.597-9.097
			c22.938,0.097,46.021,3.108,67.598,9.097c51.556-34.964,74.186-27.68,74.186-27.68c14.729,37.166,5.455,64.619,2.687,71.45
			c17.288,18.874,27.745,42.96,27.745,72.454c0,103.727-63.13,126.549-123.281,133.219c9.696,8.354,18.324,24.83,18.324,50.018
			c0,36.098-0.324,65.201-0.324,74.072c0,7.219,4.856,15.605,18.566,12.982C492.723,521.085,570,419.948,570,300.683
			C570,151.567,449.115,30.65,299.983,30.65z"/>
	</g>
</svg>