<svg version="1.1" xmlns="http://www.w3.org/2000/svg" xmlns:xlink="http://www.w3.org/1999/xlink"
	x="0px" y="0px" width="600px" height="600px" viewBox="0 0 600 600" enable-background="new 0 0 600 600" xml:space="preserve">
	<defs>
		<style>
			rect, line { shape-rendering: crispEdges; }
			svg .button { display: none; }
			svg .button:target { display: inline; }
		</style>
	</defs>
	<g class="button" id="fullscreen">
		<circle display="inline" fill="none" stroke="#FFFFFF" stroke-width="30" stroke-miterlimit="10" cx="300" cy="300" r="270"/>
		<line display="inline" fill="none" stroke="#FFFFFF" stroke-width="30" stroke-miterlimit="10" x1="170" y1="430" x2="430" y2="170"/>
		<polyline display="inline" fill="none" stroke="#FFFFFF" stroke-width="30" stroke-miterlimit="10" points="340,170 430,170,430,260"/>
		<polyline display="inline" fill="none" stroke="#FFFFFF" stroke-width="30" stroke-miterlimit="10" points="170,340 170,430,260,430"/>
	</g>
	<g class="button" id="fullscreen-hover">
		<circle display="inline" fill="none" stroke="#FFFFFF" stroke-width="30" stroke-miterlimit="10" cx="300" cy="300" r="270"/>
		<path display="inline" fill="#FFFFFF" d="M300,30C150.883,30,30,150.883,30,300s120.883,270,270,270s270-120.883,270-270
			S449.117,30,300,30z M440,260h-20v-65.857L194.143,420H260v20H160V340h20v65.857L405.857,180H340v-20h100V260z"/>
	</g>
	<g class="button" id="github">
		<path fill-rule="evenodd" clip-rule="evenodd" fill="#FFFFFF" stroke="none" stroke-width="30" stroke-miterlimit="10" d="
			M299.983,30.65C150.885,30.65,30,151.567,30,300.683c0,119.299,77.342,220.5,184.662,256.207c13.5,2.461,18.42-5.859,18.42-13.014
			c0-6.41-0.227-23.406-0.355-45.939c-75.107,16.316-90.971-36.193-90.971-36.193c-12.271-31.176-29.979-39.496-29.979-39.496
			c-24.508-16.738,1.861-16.414,1.861-16.414c27.097,1.91,41.357,27.842,41.357,27.842c24.086,41.244,63.194,29.33,78.572,22.436
			c2.461-17.449,9.438-29.363,17.158-36.098c-59.957-6.83-122.989-29.979-122.989-133.445c0-29.493,10.521-53.58,27.776-72.454
			c-2.768-6.831-12.043-34.284,2.655-71.45c0,0,22.661-7.284,74.25,27.68c21.545-5.989,44.628-9,67.597-9.097
			c22.938,0.097,46.021,3.108,67.598,9.097c51.556-34.964,74.186-27.68,74.186-27.68c14.729,37.166,5.455,64.619,2.687,71.45
			c17.288,18.874,27.745,42.96,27.745,72.454c0,103.727-63.13,126.549-123.281,133.219c9.696,8.354,18.324,24.83,18.324,50.018
			c0,36.098-0.324,65.201-0.324,74.072c0,7.219,4.856,15.605,18.566,12.982C492.723,521.085,570,419.948,570,300.683
			C570,151.567,449.115,30.65,299.983,30.65z"/>
	</g>
	<g class="button" id="twitter">
		<path fill="#FFFFFF" d="M570,300c0,149.117-120.883,270-270,270S30,449.117,30,300S150.883,30,300,30S570,150.883,570,300z
			 M510,185.946c-14.718,6.527-30.534,10.938-47.135,12.922c16.943-10.156,29.958-26.238,36.084-45.402
			c-15.856,9.404-33.42,16.234-52.112,19.916c-14.97-15.951-36.297-25.917-59.901-25.917c-45.321,0-82.065,36.744-82.065,82.062
			c0,6.434,0.726,12.694,2.123,18.701c-68.203-3.421-128.67-36.092-169.146-85.742c-7.063,12.121-11.11,26.218-11.11,41.258
			c0,28.47,14.488,53.589,36.506,68.306c-13.451-0.426-26.104-4.117-37.169-10.265c-0.006,0.343-0.009,0.686-0.009,1.031
			c0,39.762,28.288,72.93,65.832,80.467c-6.888,1.875-14.137,2.878-21.621,2.878c-5.29,0-10.431-0.515-15.44-1.472
			c10.442,32.604,40.75,56.331,76.659,56.992c-28.084,22.011-63.471,35.13-101.917,35.13c-6.624,0-13.156-0.388-19.577-1.146
			c36.318,23.286,79.454,36.87,125.799,36.87c150.946,0,233.489-125.047,233.489-233.491c0-3.558-0.081-7.098-0.238-10.616
			C485.085,216.856,498.998,202.403,510,185.946z"/>
	</g>
	<g class="button" id="facebook">
		<path fill="#FFFFFF" d="M570,300c0,149.117-120.883,270-270,270S30,449.117,30,300S150.883,30,300,30S570,150.883,570,300z
			 M316.836,473.308V315.2h53.07l7.945-61.617h-61.016v-39.34c0-17.84,4.953-29.998,30.536-29.998L380,184.231v-55.11
			c-5.644-0.75-25.012-2.428-47.544-2.428c-47.043,0-79.25,28.715-79.25,81.448v45.441H200V315.2h53.206v158.107H316.836z"/>
	</g>
</svg>